<svg width="10" height="18" viewBox="0 0 10 18" fill="none" xmlns="http://www.w3.org/2000/svg">
<path d="M7.93328 0.666656H1.39995C1.08758 0.666656 0.788007 0.790743 0.567131 1.01162C0.346255 1.2325 0.222168 1.53207 0.222168 1.84443V17.3333H2.99995V15.6667H6.33328V17.3333H9.11106V1.84443C9.11106 1.53207 8.98697 1.2325 8.76609 1.01162C8.54522 0.790743 8.24565 0.666656 7.93328 0.666656ZM2.99995 12.8889H1.88883V11.7778H2.99995V12.8889ZM2.99995 10.1111H1.88883V8.99999H2.99995V10.1111ZM2.99995 7.33332H1.88883V6.22221H2.99995V7.33332ZM2.99995 4.55555H1.88883V3.44443H2.99995V4.55555ZM5.22217 12.8889H4.11106V11.7778H5.22217V12.8889ZM5.22217 10.1111H4.11106V8.99999H5.22217V10.1111ZM5.22217 7.33332H4.11106V6.22221H5.22217V7.33332ZM5.22217 4.55555H4.11106V3.44443H5.22217V4.55555ZM7.44439 12.8889H6.33328V11.7778H7.44439V12.8889ZM7.44439 10.1111H6.33328V8.99999H7.44439V10.1111ZM7.44439 7.33332H6.33328V6.22221H7.44439V7.33332ZM7.44439 4.55555H6.33328V3.44443H7.44439V4.55555Z" fill="#696871"/>
</svg>
